<?xml version="1.0" encoding="UTF-8" standalone="no"?>
<!-- Created with Inkscape (http://www.inkscape.org/) -->

<svg
   xmlns:dc="http://purl.org/dc/elements/1.1/"
   xmlns:cc="http://creativecommons.org/ns#"
   xmlns:rdf="http://www.w3.org/1999/02/22-rdf-syntax-ns#"
   xmlns:svg="http://www.w3.org/2000/svg"
   xmlns="http://www.w3.org/2000/svg"
   xmlns:sodipodi="http://sodipodi.sourceforge.net/DTD/sodipodi-0.dtd"
   xmlns:inkscape="http://www.inkscape.org/namespaces/inkscape"
   width="1600"
   height="900"
   viewBox="0 0 423.33333 238.12501"
   version="1.1"
   id="svg8"
   inkscape:version="0.92.2 5c3e80d, 2017-08-06"
   sodipodi:docname="logo.svg"
   inkscape:export-filename="/home/winardiaris/Pictures/wallpapers/blackclover/blackclover.png"
   inkscape:export-xdpi="100.05334"
   inkscape:export-ydpi="100.05334">
  <defs
     id="defs2">
    <filter
       inkscape:collect="always"
       style="color-interpolation-filters:sRGB"
       id="filter926"
       x="-0.029129771"
       width="1.0582595"
       y="-0.026222887"
       height="1.0524458">
      <feGaussianBlur
         inkscape:collect="always"
         stdDeviation="1.1563566"
         id="feGaussianBlur928" />
    </filter>
  </defs>
  <sodipodi:namedview
     id="base"
     pagecolor="#ffffff"
     bordercolor="#666666"
     borderopacity="1.0"
     inkscape:pageopacity="0.0"
     inkscape:pageshadow="2"
     inkscape:zoom="0.49497475"
     inkscape:cx="674.2916"
     inkscape:cy="403.9293"
     inkscape:document-units="mm"
     inkscape:current-layer="layer1"
     showgrid="false"
     units="px"
     inkscape:window-width="1362"
     inkscape:window-height="742"
     inkscape:window-x="0"
     inkscape:window-y="22"
     inkscape:window-maximized="0" />
  <metadata
     id="metadata5">
    <rdf:RDF>
      <cc:Work
         rdf:about="">
        <dc:format>image/svg+xml</dc:format>
        <dc:type
           rdf:resource="http://purl.org/dc/dcmitype/StillImage" />
        <dc:title></dc:title>
      </cc:Work>
    </rdf:RDF>
  </metadata>
  <g
     inkscape:label="Layer 1"
     inkscape:groupmode="layer"
     id="layer1"
     transform="translate(0,-58.874983)">
    <rect
       style="fill:#1f2430;fill-opacity:1;stroke:none;stroke-width:3;stroke-linecap:round;stroke-linejoin:bevel;stroke-miterlimit:4;stroke-dasharray:none;paint-order:markers stroke fill"
       id="rect815"
       width="423.33331"
       height="238.125"
       x="1.0172526e-05"
       y="58.874985" />
    <g
       id="g932">
      <path
         style="fill:#000000;fill-opacity:1;stroke-width:0.13365851;filter:url(#filter926)"
         d="m 211.60469,125.02088 c -1.74022,-0.002 -3.46281,0.0423 -4.47129,0.13157 -3.07525,0.2722 -4.49316,0.70203 -5.23043,1.58563 -0.22157,0.26552 -1.31578,2.05757 -2.43144,3.98235 -1.11567,1.92477 -2.22049,3.77132 -2.45519,4.10321 -0.54901,0.77636 -1.26803,1.24641 -2.16751,1.41698 -1.467,0.27822 -7.2873,0.0486 -8.43564,-0.33284 -0.37978,-0.12614 -1.6095,-0.95013 -3.21328,-2.15289 -3.54838,-2.66112 -3.2492,-2.52709 -5.60504,-2.51105 -3.17749,0.0216 -5.89765,0.79301 -7.17815,2.03568 -1.85099,1.79633 -4.34312,6.95403 -5.37114,11.11637 -1.32944,5.38272 -1.35156,9.82223 -0.0742,14.86454 0.8578,3.38599 2.42508,6.34667 4.44596,8.39882 1.23578,1.2549 1.60735,1.34618 3.19032,0.78368 4.3469,-1.54469 6.84961,-2.13445 9.11436,-2.14793 1.22776,-0.007 1.70586,0.11818 2.36618,0.62182 0.80677,0.61535 1.89717,3.20751 2.67056,6.3493 0.49407,2.00715 0.54497,4.08463 0.11799,4.81145 -0.48008,0.81725 -1.6308,1.38439 -4.18441,2.06257 -1.60172,0.42539 -1.82723,0.58056 -2.1025,1.44597 -0.29776,0.93607 -0.41958,5.58678 -0.19448,7.42613 0.42916,3.5069 1.53365,7.06246 3.03577,9.77248 0.72374,1.30572 2.2049,3.44514 3.00366,4.33868 1.1506,1.28713 1.88137,1.42094 4.07501,0.7453 3.42107,-1.05367 3.97549,-1.09691 4.80023,-0.37278 0.9068,0.79618 1.94465,3.58212 2.54734,6.83877 0.50665,2.73773 0.53245,2.60654 -0.97294,4.93049 -1.46226,2.25736 -1.53508,2.53858 -1.04787,4.04317 0.5273,1.62838 4.51563,9.28297 5.52935,10.61202 0.1936,0.25378 0.53307,0.5753 0.75418,0.7145 0.57082,0.35939 1.62416,0.26671 2.2996,-0.20232 0.27949,-0.19409 1.0135,-0.81263 1.63106,-1.37471 0.61756,-0.56207 1.32219,-1.10548 1.56605,-1.20736 0.34116,-0.14256 1.28509,-0.18508 4.09511,-0.18508 4.25165,0 4.00452,-0.0636 5.68492,1.46111 1.5293,1.3876 1.92644,1.642 2.67632,1.71406 0.79462,0.0763 1.31008,-0.16276 1.86625,-0.86564 1.11712,-1.41186 5.0142,-8.95631 5.60504,-10.85088 0.28503,-0.914 0.3262,-1.21271 0.22138,-1.6039 -0.0708,-0.2644 -0.6908,-1.34121 -1.37758,-2.39281 l -1.24861,-1.91194 0.0744,-0.96171 c 0.0985,-1.27289 0.54877,-3.45239 1.05438,-5.10487 0.77922,-2.54674 1.52081,-3.76984 2.47712,-4.08547 0.56861,-0.18765 1.09098,-0.0898 3.70511,0.69388 2.64063,0.79167 3.27596,0.70159 4.46973,-0.63383 2.43938,-2.7288 4.52711,-6.88575 5.486,-10.92318 0.63921,-2.69145 0.90387,-7.45742 0.53881,-9.70748 -0.2713,-1.67218 -0.49398,-1.88296 -2.59772,-2.45937 -3.43138,-0.94018 -4.21024,-1.60349 -4.21024,-3.58555 0,-1.71088 0.98756,-5.61018 1.95449,-7.71642 0.92141,-2.0071 1.57195,-2.45178 3.56623,-2.43798 2.0326,0.0141 5.73,0.87018 8.58025,1.98661 1.95546,0.76595 2.58765,0.62749 3.95781,-0.86722 2.21901,-2.42071 3.79104,-5.81469 4.58876,-9.90587 1.07364,-5.50627 0.47008,-11.44819 -1.73443,-17.07199 -1.11337,-2.84033 -2.90309,-5.94696 -4.1006,-7.11785 -1.20967,-1.1828 -3.71543,-1.96078 -6.79648,-2.11008 -2.32866,-0.11285 -2.51089,-0.0405 -5.51316,2.19388 -1.33724,0.9952 -2.66234,1.95596 -2.94491,2.13488 -0.79653,0.50433 -2.00862,0.68377 -5.28552,0.78212 -3.42187,0.1027 -4.32309,0.002 -5.16073,-0.58033 -0.6697,-0.46493 -1.10089,-1.11106 -3.47983,-5.2158 -1.05213,-1.81541 -2.09452,-3.51817 -2.31631,-3.78369 -0.7644,-0.91512 -2.08069,-1.30927 -5.27141,-1.57832 -1.07872,-0.091 -2.83655,-0.13747 -4.57677,-0.13888 z m 0.005,3.19736 c 5.67389,0.006 7.24742,0.38349 8.48523,2.03908 0.25931,0.34682 1.31339,2.1812 2.34242,4.07632 1.02901,1.89512 2.03595,3.63375 2.23773,3.86357 0.60832,0.69283 1.47371,0.97622 3.26889,1.07057 1.67324,0.0879 7.5116,-0.14322 9.03214,-0.35764 1.35906,-0.19165 3.09416,-1.15538 6.18406,-3.43518 0.51764,-0.38193 1.20174,-0.78639 1.52036,-0.8988 1.35008,-0.47634 4.06746,-0.088 5.49123,0.78498 1.42706,0.87501 3.31241,3.84627 4.38985,6.91814 0.46732,1.33244 1.09721,3.85614 1.4457,5.79248 0.29679,1.64913 0.34023,6.26715 0.0736,7.81902 -0.58322,3.39454 -1.61057,6.01864 -3.12401,7.98035 -0.58117,0.7533 -1.68303,1.50584 -2.2085,1.50809 -0.16064,5.1e-4 -1.27335,-0.26501 -2.47268,-0.59023 -3.80637,-1.03218 -5.68117,-1.30797 -7.65299,-1.12645 -1.92224,0.17697 -2.5276,0.40993 -3.5054,1.34887 -1.02008,0.97951 -1.32157,1.58017 -2.03204,4.04917 -2.0319,7.06121 -2.15475,9.63716 -0.54664,11.46409 0.55032,0.62519 1.45156,1.07908 3.537,1.78167 1.26574,0.42644 1.4512,0.5361 1.74278,1.02829 0.22038,0.37203 0.25094,0.71028 0.24826,2.76297 -0.004,3.13706 -0.33184,5.22711 -1.27838,8.15317 -0.8006,2.47489 -2.75054,5.78146 -3.84007,6.51193 -0.62443,0.41868 -1.20679,0.38888 -3.09111,-0.15871 -3.25617,-0.94627 -3.87138,-0.92834 -5.06884,0.14827 -1.38615,1.24628 -2.49591,3.18752 -3.12218,5.46095 -0.71383,2.59123 -1.429,6.14605 -1.429,7.10296 0,0.78936 0.20066,1.22835 1.33345,2.91673 0.52737,0.78605 0.98974,1.61989 1.0275,1.85294 0.0529,0.3266 -0.15084,0.9296 -0.88889,2.62932 -1.07028,2.46499 -2.72357,5.73925 -3.10441,6.14803 -0.474,0.50877 -0.84633,0.35183 -2.02055,-0.85129 -1.6942,-1.73586 -1.20571,-1.62113 -6.90612,-1.62113 h -4.87853 l -0.60147,0.3553 c -0.33081,0.19552 -1.03308,0.81202 -1.56057,1.36999 -1.05241,1.11323 -1.41758,1.24933 -1.91795,0.71398 -0.58329,-0.62407 -4.00635,-7.92123 -4.00635,-8.54058 0,-0.35355 0.29629,-0.90379 1.2225,-2.26932 1.39056,-2.05015 1.41016,-2.20756 0.70301,-5.69824 -0.62648,-3.0924 -1.03947,-4.66009 -1.55065,-5.88803 -0.84904,-2.03946 -2.58341,-4.11223 -3.72782,-4.4551 -0.65662,-0.19674 -1.64132,-0.0373 -3.87844,0.62757 -2.49483,0.7415 -2.9405,0.6278 -4.23426,-1.07997 -0.8355,-1.10286 -2.28392,-3.96905 -2.76741,-5.47608 -1.09391,-3.40962 -1.61607,-9.43142 -0.93326,-10.76447 0.2147,-0.41917 0.41804,-0.52356 2.32205,-1.19432 0.83826,-0.29532 1.77922,-0.68657 2.09102,-0.8693 1.05644,-0.61911 1.6532,-1.58375 1.9284,-3.11722 0.19072,-1.0628 -0.0552,-2.90256 -0.7983,-5.97469 -1.1699,-4.83664 -1.85215,-6.44558 -3.16839,-7.47104 -0.88188,-0.68708 -1.69101,-0.89964 -3.71528,-0.97608 -2.14995,-0.0812 -3.47315,0.11832 -6.9278,1.04525 -1.67419,0.4492 -2.6365,0.64596 -2.87367,0.58763 -2.02182,-0.4973 -4.04165,-3.9731 -4.97511,-8.56172 -0.39514,-1.94234 -0.48954,-5.50729 -0.2031,-7.67335 0.88179,-6.66808 3.58657,-12.59108 6.37227,-13.95401 1.41497,-0.69228 3.69567,-0.95364 4.97173,-0.5696 0.33945,0.10216 1.14612,0.57247 1.7924,1.04524 2.01416,1.47348 3.22821,2.24788 4.36007,2.78099 1.04448,0.49195 1.18502,0.52147 3.23052,0.67586 3.10458,0.23433 8.52194,0.23887 9.31694,0.008 0.97269,-0.28268 1.5574,-0.88442 2.43744,-2.50897 3.39817,-6.27295 3.78309,-6.87221 4.78324,-7.44416 1.16426,-0.66577 3.02337,-0.89976 7.11836,-0.89592 z m 0.18666,0.20101 c -2.07067,0.002 -4.17392,0.0634 -4.95659,0.18457 -1.49813,0.23181 -2.58927,0.74415 -3.21198,1.50809 -0.4926,0.60431 -1.42483,2.22154 -3.25271,5.64342 -1.29253,2.4197 -1.6612,2.87027 -2.74782,3.35791 l -0.83564,0.37513 -3.95128,-0.0778 c -4.52962,-0.089 -6.85987,-0.27292 -7.74384,-0.61139 -0.7681,-0.29409 -2.55461,-1.39853 -4.53525,-2.80395 -1.85001,-1.31271 -2.50468,-1.55674 -3.86749,-1.44154 -1.2822,0.10839 -2.498,0.42335 -3.19422,0.82755 -2.12684,1.23477 -4.38268,5.48651 -5.45676,10.28465 -0.67628,3.021 -0.79564,4.02427 -0.78682,6.6161 0.01,2.87184 0.27665,4.66359 1.05831,7.10766 1.04477,3.26675 2.9069,5.72356 4.33842,5.72356 0.24606,0 1.59434,-0.29547 2.99583,-0.65655 2.37003,-0.61062 3.39531,-0.81536 5.08764,-1.01576 0.99767,-0.11813 3.39244,0.14988 4.26872,0.47773 0.93979,0.35162 2.02903,1.39207 2.53064,2.41734 0.71284,1.45704 2.0452,6.52101 2.44552,9.29501 0.19989,1.38516 0.21057,1.772 0.0721,2.57972 -0.38787,2.26187 -1.35732,3.16496 -4.50523,4.19692 -1.44709,0.4744 -1.62343,0.57979 -1.88271,1.12618 -0.19511,0.41116 -0.21439,0.82537 -0.1501,3.2219 0.0831,3.09776 0.37906,4.87358 1.24234,7.45381 0.79003,2.36133 2.40661,5.24343 3.4592,6.16761 0.73567,0.64594 1.11915,0.65087 3.24199,0.0418 2.02558,-0.58117 3.22431,-0.77201 3.97061,-0.63201 0.31676,0.0594 0.74563,0.34019 1.29063,0.84477 2.14755,1.98825 3.19836,4.61424 4.33424,10.83208 0.33022,1.80758 0.33774,1.94614 0.14385,2.60634 -0.11262,0.38349 -0.65158,1.37497 -1.1977,2.20328 -0.54613,0.82832 -1.02774,1.59685 -1.07032,1.7078 -0.10633,0.27709 0.2033,1.14679 1.16402,3.26863 1.65994,3.66609 2.81715,5.74732 3.19529,5.74732 0.0652,0 0.70113,-0.55762 1.41333,-1.23896 0.92623,-0.88608 1.45161,-1.28566 1.84512,-1.40342 0.75244,-0.22516 9.29281,-0.23088 10.18362,-0.007 0.51066,0.12844 0.84338,0.3689 1.79004,1.29404 1.43071,1.39814 1.53203,1.46035 1.85346,1.13609 0.60572,-0.61099 3.49885,-6.56588 4.00924,-8.2521 0.1362,-0.44995 0.12726,-0.46886 -1.05491,-2.27898 -1.12513,-1.72281 -1.40566,-2.45067 -1.28882,-3.34278 0.14963,-1.14238 0.85198,-4.45662 1.34729,-6.35661 0.6048,-2.31997 1.46037,-4.00322 2.74078,-5.39281 1.59969,-1.73607 1.97833,-1.77764 6.05197,-0.66229 1.52225,0.41679 1.78318,0.45415 2.23512,0.31875 1.33043,-0.3986 3.66415,-4.4256 4.5979,-7.93388 0.60455,-2.27133 0.75735,-3.41127 0.82964,-6.19059 0.0954,-3.66861 0.13952,-3.58664 -2.36879,-4.39454 -2.30309,-0.74181 -3.33927,-1.54035 -3.88237,-2.99192 -0.59721,-1.59621 -0.44764,-3.51659 0.59624,-7.65691 0.87224,-3.45946 1.45867,-5.16012 2.07198,-6.00654 1.00857,-1.39199 1.92962,-1.87099 4.10269,-2.13436 2.0169,-0.24444 4.01213,0.0292 7.93232,1.08806 1.06393,0.28739 2.15,0.52263 2.41342,0.52263 1.39683,0 3.19619,-2.34411 4.26037,-5.5497 1.18469,-3.56862 1.48486,-6.96166 0.94526,-10.68981 -0.83936,-5.79921 -2.76062,-10.52932 -5.20563,-12.81634 -0.37356,-0.34942 -0.93285,-0.74694 -1.24286,-0.88339 -0.92344,-0.40645 -2.71423,-0.71234 -3.65551,-0.62444 -1.00988,0.0943 -1.67024,0.42535 -3.39055,1.69971 -1.54439,1.14405 -3.54419,2.35089 -4.31179,2.60216 -0.92372,0.30237 -3.2629,0.4799 -7.3849,0.56074 -5.79513,0.11365 -5.71425,0.15623 -8.07328,-4.24705 -3.16351,-5.90491 -3.30273,-6.05503 -6.09295,-6.56884 -0.65154,-0.11999 -2.6896,-0.17862 -4.76028,-0.177 z m -0.11434,1.00714 c 0.12691,0 1.2511,1.78995 2.12365,3.3814 0.31441,0.57345 0.61161,1.02454 0.66046,1.00245 0.0488,-0.0221 0.42194,-0.20675 0.82911,-0.41039 1.67247,-0.83643 3.1718,-0.70703 4.62714,0.39916 0.51509,0.39152 1.17087,1.22638 1.05464,1.34259 -0.0462,0.0462 -0.49802,0.12813 -1.00426,0.18221 -1.70127,0.18179 -3.2034,1.18063 -3.92752,2.61156 -0.42442,0.83868 -0.65324,1.67404 -0.50044,1.82684 0.0654,0.0654 0.77103,0.23521 1.56787,0.37748 0.79688,0.14227 2.17061,0.51141 3.05275,0.82023 1.50846,0.52808 1.69138,0.56159 3.07415,0.56205 0.80862,2.6e-4 2.00212,-0.0772 2.65227,-0.17204 0.91712,-0.13376 1.4864,-0.13904 2.53952,-0.0238 2.06583,0.22617 1.94572,0.0986 2.38784,2.53507 0.53102,2.92634 1.01955,6.38564 1.12305,7.95267 0.0486,0.73513 0.14807,1.45293 0.22137,1.59504 0.21401,0.41488 -0.30877,0.74399 -1.18178,0.74399 -1.06471,0 -2.08304,0.43277 -2.71912,1.15542 -0.77166,0.87665 -0.86456,1.27627 -0.76984,3.31483 0.15695,3.37747 0.9422,5.74522 2.23121,6.72809 0.35838,0.27327 0.8504,0.61837 1.09328,0.7667 0.62671,0.38274 0.75954,0.90859 0.76828,3.04256 0.008,1.87096 -0.35035,4.83719 -0.93117,7.71644 -0.4419,2.19052 -0.46712,2.23464 -1.7903,3.12584 -0.70066,0.47189 -1.44254,1.11484 -1.84694,1.60076 -0.78,0.93727 -1.73296,2.80432 -1.67725,3.28586 0.0435,0.37614 0.36338,0.49506 2.49513,0.92752 1.97722,0.4011 2.64906,0.44107 3.84999,0.22998 1.45092,-0.25503 2.50647,-0.8288 3.52264,-1.91507 0.43974,-0.47009 0.85071,-0.82332 0.91315,-0.78473 0.22425,0.1386 0.48083,1.36375 0.46728,2.23148 -0.0171,1.09447 -0.36553,2.23655 -0.945,3.09764 -0.24277,0.36074 -0.44117,0.73706 -0.44117,0.83641 0,0.0994 0.28568,0.37634 0.63487,0.6153 1.34221,0.91849 2.77664,2.51873 2.48965,2.77758 -0.22852,0.20611 -1.39929,0.41268 -2.8204,0.49757 -0.79214,0.0473 -1.47893,0.14525 -1.52612,0.21746 -0.0472,0.0722 -0.0321,0.31832 0.0334,0.5469 0.0656,0.22858 0.1193,0.75006 0.1193,1.15881 0,0.88391 -0.47065,1.94207 -1.09876,2.47059 -0.55154,0.46408 -1.54332,0.9551 -2.16438,1.07162 l -0.50827,0.0953 0.0984,-0.449 c 0.16021,-0.72947 0.102,-1.80932 -0.13654,-2.52751 -0.31148,-0.93773 -1.31653,-2.00223 -2.31188,-2.44893 -0.79626,-0.35733 -3.21176,-0.84672 -3.54612,-0.7184 -0.13534,0.0519 -0.20277,0.52797 -0.26184,1.85294 -0.10107,2.26688 -0.30688,2.95536 -1.18178,3.95232 -1.20675,1.37511 -1.37056,1.91974 -1.84564,6.13733 -0.52132,4.62816 -0.82273,8.72688 -0.68029,9.24906 0.0733,0.26863 0.52257,1.11133 0.99853,1.8728 1.13938,1.82283 1.36816,2.41752 1.14104,2.9658 -0.32705,0.7896 -2.2023,2.07714 -4.28099,2.93919 -0.95394,0.3956 -3.06337,0.95458 -4.21415,1.11677 -0.89222,0.12576 -0.9548,0.0104 -1.26219,-2.32492 -0.14997,-1.13945 -0.308,-2.19201 -0.35111,-2.33904 -0.28778,-0.9814 -1.40428,-0.97467 -1.70337,0.0102 -0.0463,0.15258 -0.20335,1.20514 -0.34902,2.33903 -0.26271,2.04497 -0.40575,2.44013 -0.86017,2.37584 -0.0778,-0.011 -0.32192,-0.0432 -0.54246,-0.0715 -2.48289,-0.31861 -5.2417,-1.41399 -7.19354,-2.85616 -1.51512,-1.1195 -1.56158,-1.61311 -0.33964,-3.61479 1.45903,-2.39004 1.38761,-2.208 1.35773,-3.46181 -0.0368,-1.54581 -0.65573,-8.05844 -0.98442,-10.35853 -0.30762,-2.15267 -0.58102,-2.83813 -1.59189,-3.99332 -0.85172,-0.97331 -1.07313,-1.72143 -1.18596,-4.00662 l -0.0867,-1.75714 -0.68084,0.0272 c -1.00336,0.0402 -2.52348,0.38669 -3.21798,0.73355 -0.83652,0.41778 -1.8395,1.54806 -2.11818,2.38706 -0.25023,0.75337 -0.30831,1.672 -0.15402,2.43248 0.0914,0.45035 0.0736,0.50122 -0.17464,0.50122 -0.3958,0 -1.86622,-0.69475 -2.36539,-1.11756 -0.91815,-0.77773 -1.31348,-2.20267 -0.9933,-3.58033 0.0623,-0.2682 0.076,-0.54494 0.0302,-0.61477 -0.0458,-0.0698 -0.74462,-0.16545 -1.55326,-0.2125 -1.74154,-0.10133 -2.78704,-0.33441 -2.84443,-0.63435 -0.0561,-0.2931 1.55395,-1.99906 2.4445,-2.59016 0.40362,-0.26791 0.73408,-0.56804 0.73408,-0.66699 0,-0.099 -0.19867,-0.47515 -0.44145,-0.83588 -0.87933,-1.30668 -1.19141,-3.16817 -0.77454,-4.62063 0.21578,-0.75181 0.38723,-0.90039 0.63593,-0.55159 1.3768,1.93082 4.06328,3.01049 6.47304,2.60111 1.87073,-0.31781 3.8896,-0.85473 3.96642,-1.0549 0.10502,-0.27367 -0.28641,-1.33579 -0.84163,-2.28316 -0.66077,-1.12743 -1.44614,-1.93303 -2.72513,-2.79483 -1.30222,-0.87746 -1.32438,-0.91891 -1.81117,-3.43126 -0.62117,-3.20593 -0.90663,-5.81754 -0.85233,-7.79448 0.0594,-2.16313 0.11699,-2.29866 1.27054,-2.98305 0.99443,-0.58998 1.67036,-1.48525 2.09677,-2.77733 0.63634,-1.92825 0.95473,-5.37074 0.61111,-6.60826 -0.33862,-1.21953 -1.86936,-2.22468 -3.38767,-2.22468 -0.91068,0 -1.44347,-0.35772 -1.17916,-0.79151 0.0919,-0.15081 0.16707,-0.57352 0.16707,-0.93927 0,-1.23881 1.17927,-9.29012 1.55091,-10.58825 0.14083,-0.49194 3.4494,-0.7262 5.51106,-0.39028 1.68568,0.27466 2.99692,0.13773 4.81354,-0.50278 0.83446,-0.29422 2.09751,-0.63358 2.80683,-0.75418 1.75587,-0.29856 1.9181,-0.37338 1.81378,-0.83511 -0.1834,-0.81172 -0.8701,-2.05866 -1.45641,-2.64497 -0.77349,-0.7735 -1.82894,-1.24823 -3.04857,-1.37131 -0.51853,-0.0523 -0.96423,-0.16037 -0.99068,-0.24017 -0.0703,-0.2122 1.23018,-1.4868 1.82866,-1.79212 1.24462,-0.63495 2.46385,-0.60296 3.87636,0.10129 0.40341,0.20113 0.77267,0.38339 0.8205,0.40515 0.0478,0.0218 0.3119,-0.36918 0.58684,-0.86877 0.84685,-1.53887 2.08768,-3.51455 2.2072,-3.51455 z m -34.93995,7.38619 c 1.37977,-0.0343 3.07964,0.70356 4.52872,1.98035 1.12708,0.99308 2.67417,1.76758 4.10425,2.05474 1.37586,0.27626 3.99701,0.26798 4.71722,-0.015 1.04614,-0.41088 1.45904,-0.38841 1.99626,0.1086 l 0.48347,0.44745 -0.26289,1.20292 c -0.46298,2.11891 -1.0712,6.07687 -1.31465,8.55414 l -0.23653,2.40587 -0.76644,0.0399 c -0.97103,0.0507 -1.30215,-0.10688 -2.90654,-1.38436 -0.79693,-0.63455 -1.81726,-1.28143 -2.74,-1.73678 -1.66635,-0.8223 -4.04556,-1.66368 -4.7039,-1.66368 -0.56588,0 -1.40537,0.73542 -1.85738,1.62739 -0.37449,0.73902 -0.75646,2.25556 -0.69701,2.76794 l 0.0407,0.34955 1.73756,0.0105 c 2.2096,0.0134 3.17642,0.20251 4.69423,0.91838 2.5386,1.19733 4.41134,2.824 5.18944,4.5081 0.72036,1.55909 1.36664,4.48917 1.19744,5.42857 -0.19233,1.06799 -0.48398,1.07459 -1.388,0.031 -1.76993,-2.04304 -4.29869,-2.94388 -8.26334,-2.94388 -1.48695,0 -2.23883,0.22381 -3.36965,1.00349 -0.70656,0.48716 -1.04287,0.63052 -1.61486,0.68864 -1.46653,0.14904 -3.07356,-0.54353 -4.02073,-1.73286 -1.54737,-1.94295 -2.4487,-5.40029 -2.42883,-9.31536 0.023,-4.52644 1.3081,-9.10289 3.49236,-12.43521 1.17014,-1.78517 2.49906,-2.71553 4.11756,-2.88331 0.089,-0.009 0.17951,-0.015 0.27151,-0.0173 z m 69.66244,0.006 c 0.73776,-0.006 1.5434,0.17743 2.2085,0.51688 3.42052,1.74502 6.47214,10.43863 5.84887,16.66242 -0.31835,3.17889 -1.0965,5.70082 -2.23669,7.24967 -0.70078,0.95194 -1.48307,1.48174 -2.65673,1.79943 -1.28522,0.3479 -2.04675,0.2158 -3.16681,-0.54951 -0.49612,-0.33898 -1.18356,-0.701 -1.52768,-0.80457 -1.2909,-0.3885 -5.19244,-0.10769 -6.79831,0.48921 -1.16665,0.43365 -2.15425,1.1073 -3.14829,2.14794 -0.48177,0.50434 -0.94045,0.91708 -1.0194,0.91708 -0.079,0 -0.2256,-0.0988 -0.3258,-0.21955 -0.49354,-0.59468 0.17102,-4.38513 1.08676,-6.1992 0.77191,-1.52914 2.55821,-3.07536 4.92971,-4.26715 1.48645,-0.74703 2.60633,-0.97814 4.8258,-0.99539 1.80369,-0.014 1.8043,-0.014 1.85007,-0.33807 0.10374,-0.73452 -0.62932,-2.92503 -1.21206,-3.62183 -0.38853,-0.46459 -0.96525,-0.79881 -1.37836,-0.79881 -0.63035,0 -2.96693,0.83455 -4.67282,1.66916 -0.91404,0.4472 -1.9234,1.08095 -2.66795,1.67517 -1.6081,1.28339 -2.03639,1.48997 -2.98643,1.44022 l -0.76123,-0.0396 -0.16212,-1.80151 c -0.2051,-2.28088 -0.74403,-5.92105 -1.24703,-8.42336 l -0.38949,-1.93805 0.46284,-0.43439 c 0.54559,-0.51192 0.91295,-0.5442 1.90515,-0.16708 0.55549,0.21112 1.02692,0.26732 2.24452,0.26732 2.85431,0 4.8928,-0.69066 6.67588,-2.26175 1.05688,-0.93122 2.46768,-1.67568 3.61165,-1.90542 0.22317,-0.0448 0.46154,-0.0674 0.70745,-0.0692 z m -35.04488,3.04439 c -0.13072,8e-4 -0.0798,0.27167 0.25086,1.7266 0.27787,1.22261 0.20572,2.7432 -0.21249,4.48696 -0.24676,1.02884 -0.27665,1.45603 -0.21747,3.09816 0.0378,1.04754 0.0399,1.90463 0.005,1.90463 -0.0353,0 -1.07431,-0.75183 -2.30874,-1.67073 -2.04951,-1.52566 -2.67839,-1.88898 -2.67839,-1.54726 0,0.0679 0.45163,1.43628 1.00349,3.04073 0.55185,1.60446 0.97788,2.98385 0.94683,3.06554 -0.031,0.0817 -1.20443,0.95001 -2.60738,1.92943 -1.40296,0.97942 -2.55074,1.85986 -2.55074,1.95658 0,0.21532 -0.18561,0.20355 3.5336,0.22504 l 3.0658,0.0178 0.92777,3.03367 c 0.80631,2.63651 0.96489,3.03899 1.21127,3.07414 0.27924,0.0398 0.28342,0.0836 0.27254,2.91412 -0.0114,2.94894 -0.23321,4.72089 -0.62182,4.96756 -0.0931,0.059 -0.39192,0.10826 -0.66412,0.10938 -0.62784,0.002 -1.10595,0.21904 -1.29143,0.58477 -0.0798,0.15728 -0.32928,0.87079 -0.55447,1.58561 -0.75128,2.38472 -2.28831,4.16952 -4.07633,4.73314 -0.61398,0.19354 -0.86876,0.20474 -1.76156,0.0775 -2.30753,-0.32877 -2.40274,-0.36847 -3.57747,-1.49348 -0.59138,-0.56636 -1.21782,-1.10622 -1.39218,-1.19954 -0.30023,-0.16067 -0.31381,-0.224 -0.25766,-1.19431 0.0467,-0.80731 0.13715,-1.15771 0.42709,-1.65245 0.50257,-0.85756 0.42973,-1.13414 -0.45371,-1.72164 -0.40432,-0.26888 -0.86624,-0.63124 -1.02646,-0.80508 -0.49677,-0.539 -1.22186,-1.84663 -1.51906,-2.73974 -0.2945,-0.88498 -0.57967,-1.16767 -1.10269,-1.09303 -0.35208,0.0502 -0.45674,0.44116 -0.47929,1.78952 -0.0362,2.16554 0.73005,7.50687 1.1442,7.97539 0.34394,0.38909 3.1793,1.73315 3.54586,1.68091 0.41444,-0.059 0.45012,-0.41738 0.0903,-0.90402 -0.56953,-0.77035 -0.11461,-0.58419 0.85103,0.34824 0.86705,0.83724 1.06006,0.95788 1.83755,1.1481 0.47783,0.11691 1.21772,0.25454 1.64411,0.30596 0.42637,0.0514 0.85091,0.16905 0.94343,0.26157 0.0949,0.0949 0.30018,1.20919 0.4712,2.55674 0.33422,2.63356 0.49636,3.22232 1.14863,4.17056 0.69832,1.01518 1.14043,1.97984 1.41125,3.07963 0.26299,1.068 0.72482,5.27895 0.86669,7.90282 l 0.083,1.53708 -0.66438,1.06927 c -0.36544,0.58809 -1.03865,1.47724 -1.49583,1.9759 l -0.83118,0.90663 0.15612,2.368 c 0.18593,2.81925 0.36193,4.17858 0.63488,4.90543 0.56269,1.49852 0.69857,2.00401 0.83221,3.09372 0.08,0.652 0.14573,1.64876 0.14594,2.21503 0,1.13658 0.15282,1.61284 0.58344,1.82134 0.37802,0.18304 0.41532,0.18273 0.82519,-0.004 v 0 c 0.40448,-0.18428 0.77357,-0.86066 1.62087,-2.96893 0.90144,-2.243 1.21451,-2.61808 2.18344,-2.61808 0.96894,0 1.28173,0.37508 2.18319,2.61808 1.14046,2.83777 1.5353,3.33741 2.36564,2.99347 0.50519,-0.20925 0.66386,-0.64996 0.66386,-1.84563 0,-2.00932 0.24775,-3.43052 0.88209,-5.05944 0.34663,-0.89015 0.63823,-3.0521 0.79464,-5.89037 l 0.0903,-1.63706 -0.77429,-0.83562 c -0.84472,-0.91198 -2.02067,-2.62901 -2.14793,-3.13602 -0.18962,-0.75552 0.57115,-8.47517 0.96536,-9.7957 0.25353,-0.84923 0.75624,-1.89571 1.18779,-2.47269 0.72436,-0.96844 0.89596,-1.5317 1.21912,-4.00036 0.39208,-2.99522 0.39297,-2.99914 0.7586,-3.07284 0.1643,-0.0331 0.87031,-0.1629 1.56868,-0.2882 0.69836,-0.12529 1.39004,-0.28613 1.53707,-0.35764 0.14702,-0.0715 0.67147,-0.5261 1.16559,-1.01001 0.94118,-0.92173 1.26615,-1.02521 0.78759,-0.25087 -0.69719,1.12807 -0.11233,1.17484 1.9579,0.15638 0.89823,-0.44192 1.58602,-0.87078 1.71693,-1.07058 0.49783,-0.75978 1.27256,-7.15607 1.06508,-8.79301 -0.10775,-0.85014 -0.28132,-1.01486 -0.85703,-0.81239 -0.27458,0.0966 -0.42433,0.32972 -0.71187,1.10868 -0.45719,1.23858 -0.59956,1.39071 -0.89333,0.9531 -0.48097,-0.71648 -1.39362,-1.88749 -1.97537,-2.53455 -0.95328,-1.06026 -2.41858,-1.66596 -5.19233,-2.14585 -0.68027,-0.11769 -0.88987,-0.22818 -1.41621,-0.74661 -0.33974,-0.33462 -0.90776,-1.09581 -1.26218,-1.69161 -0.85623,-1.43939 -1.98072,-3.9342 -1.86077,-4.12827 0.0689,-0.11152 0.71692,-0.13697 2.31553,-0.0914 2.33732,0.0666 2.55412,0.0487 2.55412,-0.21171 0,-0.0891 -1.145,-0.96519 -2.5442,-1.94692 -1.39922,-0.98176 -2.57561,-1.83659 -2.61444,-1.89942 -0.0389,-0.0629 0.38415,-1.44174 0.94005,-3.06422 0.5559,-1.62248 1.01079,-3.00541 1.01079,-3.07337 0,-0.3506 -0.68084,0.0442 -2.79665,1.62217 -1.28078,0.9552 -2.37951,1.68558 -2.44188,1.62323 -0.0623,-0.0624 -0.18275,-0.63043 -0.26731,-1.26245 -0.16243,-1.21394 -0.0529,-2.54814 0.3592,-4.37862 0.30649,-1.3614 0.25614,-3.62248 -0.10416,-4.66996 -0.1628,-0.4733 -0.37925,-0.88688 -0.48085,-0.91916 -0.0258,-0.008 -0.0482,-0.0138 -0.0668,-0.0136 z m 2.40271,18.23342 h 0.51401 0.51401 l 0.77507,1.70598 c 1.02796,2.26273 1.95795,3.77572 2.82562,4.59633 0.68198,0.64499 0.75803,0.67959 1.84433,0.84451 1.4856,0.22554 2.9871,0.70096 3.75706,1.18935 0.67993,0.43129 1.69235,1.58209 2.62408,2.9833 l 0.60172,0.90481 -0.36597,0.47981 c -0.38647,0.50669 -1.26258,1.19922 -1.68797,1.33423 -0.44731,0.14198 -0.46286,0.69368 -0.0426,1.51723 0.28746,0.56326 0.39583,0.98804 0.4336,1.7005 l 0.0504,0.94944 -0.44798,0.27933 c -0.2464,0.1536 -0.83682,0.67325 -1.31204,1.15463 -0.94744,0.95978 -1.1227,1.04177 -2.86243,1.34103 -1.49945,0.25791 -1.87117,0.25025 -2.6515,-0.0548 -1.86743,-0.73005 -3.35243,-2.65013 -4.03795,-5.22104 -0.33761,-1.26615 -0.67362,-1.60364 -1.59658,-1.60364 -0.25779,0 -0.50352,-0.0563 -0.54586,-0.12478 -0.0423,-0.0685 0.0179,-0.65494 0.13365,-1.30317 0.28646,-1.60386 0.39267,-4.87818 0.21459,-6.61349 l -0.14644,-1.42534 0.70456,-2.31709 z m -2.06753,14.56879 c 1.71923,0 1.82364,0.0666 2.18579,1.4021 0.71052,2.62003 2.37276,4.7113 4.31256,5.42518 0.34956,0.12864 0.68085,0.27214 0.73618,0.319 0.12274,0.10396 -0.3941,4.21399 -0.64976,5.167 -0.1011,0.37683 -0.40249,1.00324 -0.66986,1.39193 -0.62643,0.91066 -1.18979,2.1267 -1.44701,3.12323 -0.25256,0.97844 -0.69671,5.02692 -0.87374,7.9652 -0.17877,2.96707 -0.44555,4.23777 -1.52924,7.2844 -0.26149,0.73512 -0.47602,1.52796 -0.47668,1.7621 -0.002,0.68435 -0.21294,1.06602 -0.67979,1.22877 -0.57283,0.19969 -1.4303,0.1816 -1.9417,-0.041 -0.42771,-0.18619 -0.5815,-0.50388 -0.58684,-1.21233 -0.002,-0.22054 -0.21701,-1.00244 -0.4785,-1.73756 -0.2615,-0.73512 -0.55628,-1.58445 -0.65524,-1.88714 -0.4039,-1.23526 -0.75379,-3.40538 -0.8774,-5.44293 -0.20499,-3.37902 -0.64118,-7.14911 -0.94553,-8.17119 -0.30566,-1.02644 -0.78781,-2.05846 -1.24992,-2.6763 -0.49429,-0.66087 -0.84273,-1.44044 -0.92751,-2.07484 -0.044,-0.32907 -0.20165,-1.49616 -0.35034,-2.59329 -0.14868,-1.09713 -0.22356,-2.03439 -0.16654,-2.08293 0.057,-0.0486 0.38949,-0.1935 0.73903,-0.32213 1.95309,-0.71877 3.52863,-2.70971 4.364,-5.51472 0.15523,-0.52119 0.38102,-1.02968 0.502,-1.1301 0.15606,-0.12952 0.64026,-0.18247 1.66604,-0.18247 z m -24.27285,11.16884 c -0.2804,-0.0168 -0.44116,0.53346 -0.45736,1.61695 -0.0173,1.15185 0.33836,2.28429 1.04001,3.31222 0.30283,0.44361 0.55057,0.83554 0.55057,0.87087 0,0.0353 -0.34421,0.28432 -0.76488,0.55343 -0.89898,0.57506 -2.44292,2.07647 -2.44292,2.37557 0,0.11448 0.1191,0.27188 0.2647,0.3498 0.32711,0.17507 2.18775,0.36638 3.31067,0.34042 0.50926,-0.0118 0.83467,0.0358 0.83378,0.12166 -0.002,0.0774 -0.091,0.43612 -0.20049,0.79699 -0.25253,0.83249 -0.2512,1.34829 0.006,2.10094 0.29586,0.86824 0.88821,1.51064 1.82398,1.97825 0.898,0.44873 0.99183,0.47269 1.10973,0.28193 0.0438,-0.0707 0.10039,-0.60252 0.12582,-1.18151 0.0558,-1.27069 0.36079,-2.03181 1.16351,-2.90264 0.81288,-0.88189 1.80802,-1.341 3.60878,-1.66525 0.82977,-0.14941 1.56489,-0.32803 1.63366,-0.3968 0.29208,-0.29207 -0.50173,-6.40072 -0.88104,-6.78004 -0.16282,-0.16282 -0.32606,-0.15229 -1.18075,0.077 -2.7326,0.73314 -4.60653,0.83412 -6.27123,0.33806 -0.87872,-0.26183 -2.42004,-1.25215 -2.81754,-1.8104 -0.17454,-0.24513 -0.32678,-0.36986 -0.45422,-0.37747 z m 48.61437,0.0318 c -0.12632,0.004 -0.51399,0.28786 -0.89776,0.66255 -1.33146,1.29995 -3.11478,1.92131 -5.14925,1.79394 -0.62485,-0.0391 -1.93886,-0.26225 -2.91986,-0.496 -1.03386,-0.24632 -1.83324,-0.37525 -1.90177,-0.30673 -0.33648,0.33648 -1.09605,6.60968 -0.83223,6.8735 0.0787,0.0787 0.81391,0.25745 1.63365,0.39732 1.81758,0.3101 2.71911,0.71719 3.54535,1.6005 0.81974,0.87636 1.12676,1.60234 1.22173,2.88802 0.0426,0.57671 0.10214,1.1279 0.13235,1.22486 0.0735,0.23604 0.47765,0.10927 1.39297,-0.43727 1.42964,-0.85363 1.95906,-2.13837 1.55535,-3.77428 -0.11861,-0.48063 -0.18157,-0.92905 -0.13992,-0.99644 0.0417,-0.0674 0.27679,-0.0848 0.52262,-0.0386 0.52935,0.0993 3.21654,-0.16881 3.56597,-0.35581 0.13372,-0.0716 0.2433,-0.21172 0.2433,-0.31144 0,-0.30494 -1.18791,-1.52314 -2.12287,-2.17717 -0.48652,-0.34035 -0.93773,-0.66459 -1.0027,-0.72051 -0.065,-0.0559 0.10693,-0.40828 0.38191,-0.78289 0.66764,-0.90951 1.13332,-2.25944 1.13688,-3.29604 0.004,-1.03429 -0.11953,-1.65819 -0.34406,-1.74435 -0.006,-0.002 -0.0132,-0.004 -0.0217,-0.003 z"
         id="path896"
         inkscape:connector-curvature="0"
         sodipodi:nodetypes="sccccccscsssscccccccsccscccccccccscccccccccccccsssccscscccccscscssccccscscscssscscsccscccccscscccccsccccscccccccccccccsccccsccccccccssccccccccccccssccssccccccccccccccsccccccccccscccccccccscscccscssssssccccccccscccsccscccccsccccsccscscccccscccccccccscccccccccccsccccccccscscccsccscccsccccccccscsccscccccccccsccccccccccccsccccccccsccssscccccccccccsscccccscscccccccscccccccscscccscccccccccccccccccccccscsccccscccccccccccccssccscccccccccccccccccccccccccscccsccccccccccccccccccccccccccsccccccsscccccccccccscccccsccccscccscsccccccccccccsccccccccccccccccccscccccc" />
      <path
         sodipodi:nodetypes="sccccccscsssscccccccsccscccccccccscccccccccccccsssccscscccccscscssccccscscscssscscsccscccccscscccccsccccscccccccccccccsccccsccccccccssccccccccccccssccssccccccccccccccsccccccccccscccccccccscscccscssssssccccccccscccsccscccccsccccsccscscccccscccccccccscccccccccccsccccccccscscccsccscccsccccccccscsccscccccccccsccccccccccccsccccccccsccssscccccccccccsscccccscscccccccscccccccscscccscccccccccccccccccccccscsccccscccccccccccccssccscccccccccccccccccccccccccscccsccccccccccccccccccccccccccsccccccsscccccccccccscccccsccccscccscsccccccccccccsccccccccccccccccccscccccc"
         inkscape:connector-curvature="0"
         id="path888"
         d="m 211.60469,125.02088 c -1.74022,-0.002 -3.46281,0.0423 -4.47129,0.13157 -3.07525,0.2722 -4.49316,0.70203 -5.23043,1.58563 -0.22157,0.26552 -1.31578,2.05757 -2.43144,3.98235 -1.11567,1.92477 -2.22049,3.77132 -2.45519,4.10321 -0.54901,0.77636 -1.26803,1.24641 -2.16751,1.41698 -1.467,0.27822 -7.2873,0.0486 -8.43564,-0.33284 -0.37978,-0.12614 -1.6095,-0.95013 -3.21328,-2.15289 -3.54838,-2.66112 -3.2492,-2.52709 -5.60504,-2.51105 -3.17749,0.0216 -5.89765,0.79301 -7.17815,2.03568 -1.85099,1.79633 -4.34312,6.95403 -5.37114,11.11637 -1.32944,5.38272 -1.35156,9.82223 -0.0742,14.86454 0.8578,3.38599 2.42508,6.34667 4.44596,8.39882 1.23578,1.2549 1.60735,1.34618 3.19032,0.78368 4.3469,-1.54469 6.84961,-2.13445 9.11436,-2.14793 1.22776,-0.007 1.70586,0.11818 2.36618,0.62182 0.80677,0.61535 1.89717,3.20751 2.67056,6.3493 0.49407,2.00715 0.54497,4.08463 0.11799,4.81145 -0.48008,0.81725 -1.6308,1.38439 -4.18441,2.06257 -1.60172,0.42539 -1.82723,0.58056 -2.1025,1.44597 -0.29776,0.93607 -0.41958,5.58678 -0.19448,7.42613 0.42916,3.5069 1.53365,7.06246 3.03577,9.77248 0.72374,1.30572 2.2049,3.44514 3.00366,4.33868 1.1506,1.28713 1.88137,1.42094 4.07501,0.7453 3.42107,-1.05367 3.97549,-1.09691 4.80023,-0.37278 0.9068,0.79618 1.94465,3.58212 2.54734,6.83877 0.50665,2.73773 0.53245,2.60654 -0.97294,4.93049 -1.46226,2.25736 -1.53508,2.53858 -1.04787,4.04317 0.5273,1.62838 4.51563,9.28297 5.52935,10.61202 0.1936,0.25378 0.53307,0.5753 0.75418,0.7145 0.57082,0.35939 1.62416,0.26671 2.2996,-0.20232 0.27949,-0.19409 1.0135,-0.81263 1.63106,-1.37471 0.61756,-0.56207 1.32219,-1.10548 1.56605,-1.20736 0.34116,-0.14256 1.28509,-0.18508 4.09511,-0.18508 4.25165,0 4.00452,-0.0636 5.68492,1.46111 1.5293,1.3876 1.92644,1.642 2.67632,1.71406 0.79462,0.0763 1.31008,-0.16276 1.86625,-0.86564 1.11712,-1.41186 5.0142,-8.95631 5.60504,-10.85088 0.28503,-0.914 0.3262,-1.21271 0.22138,-1.6039 -0.0708,-0.2644 -0.6908,-1.34121 -1.37758,-2.39281 l -1.24861,-1.91194 0.0744,-0.96171 c 0.0985,-1.27289 0.54877,-3.45239 1.05438,-5.10487 0.77922,-2.54674 1.52081,-3.76984 2.47712,-4.08547 0.56861,-0.18765 1.09098,-0.0898 3.70511,0.69388 2.64063,0.79167 3.27596,0.70159 4.46973,-0.63383 2.43938,-2.7288 4.52711,-6.88575 5.486,-10.92318 0.63921,-2.69145 0.90387,-7.45742 0.53881,-9.70748 -0.2713,-1.67218 -0.49398,-1.88296 -2.59772,-2.45937 -3.43138,-0.94018 -4.21024,-1.60349 -4.21024,-3.58555 0,-1.71088 0.98756,-5.61018 1.95449,-7.71642 0.92141,-2.0071 1.57195,-2.45178 3.56623,-2.43798 2.0326,0.0141 5.73,0.87018 8.58025,1.98661 1.95546,0.76595 2.58765,0.62749 3.95781,-0.86722 2.21901,-2.42071 3.79104,-5.81469 4.58876,-9.90587 1.07364,-5.50627 0.47008,-11.44819 -1.73443,-17.07199 -1.11337,-2.84033 -2.90309,-5.94696 -4.1006,-7.11785 -1.20967,-1.1828 -3.71543,-1.96078 -6.79648,-2.11008 -2.32866,-0.11285 -2.51089,-0.0405 -5.51316,2.19388 -1.33724,0.9952 -2.66234,1.95596 -2.94491,2.13488 -0.79653,0.50433 -2.00862,0.68377 -5.28552,0.78212 -3.42187,0.1027 -4.32309,0.002 -5.16073,-0.58033 -0.6697,-0.46493 -1.10089,-1.11106 -3.47983,-5.2158 -1.05213,-1.81541 -2.09452,-3.51817 -2.31631,-3.78369 -0.7644,-0.91512 -2.08069,-1.30927 -5.27141,-1.57832 -1.07872,-0.091 -2.83655,-0.13747 -4.57677,-0.13888 z m 0.005,3.19736 c 5.67389,0.006 7.24742,0.38349 8.48523,2.03908 0.25931,0.34682 1.31339,2.1812 2.34242,4.07632 1.02901,1.89512 2.03595,3.63375 2.23773,3.86357 0.60832,0.69283 1.47371,0.97622 3.26889,1.07057 1.67324,0.0879 7.5116,-0.14322 9.03214,-0.35764 1.35906,-0.19165 3.09416,-1.15538 6.18406,-3.43518 0.51764,-0.38193 1.20174,-0.78639 1.52036,-0.8988 1.35008,-0.47634 4.06746,-0.088 5.49123,0.78498 1.42706,0.87501 3.31241,3.84627 4.38985,6.91814 0.46732,1.33244 1.09721,3.85614 1.4457,5.79248 0.29679,1.64913 0.34023,6.26715 0.0736,7.81902 -0.58322,3.39454 -1.61057,6.01864 -3.12401,7.98035 -0.58117,0.7533 -1.68303,1.50584 -2.2085,1.50809 -0.16064,5.1e-4 -1.27335,-0.26501 -2.47268,-0.59023 -3.80637,-1.03218 -5.68117,-1.30797 -7.65299,-1.12645 -1.92224,0.17697 -2.5276,0.40993 -3.5054,1.34887 -1.02008,0.97951 -1.32157,1.58017 -2.03204,4.04917 -2.0319,7.06121 -2.15475,9.63716 -0.54664,11.46409 0.55032,0.62519 1.45156,1.07908 3.537,1.78167 1.26574,0.42644 1.4512,0.5361 1.74278,1.02829 0.22038,0.37203 0.25094,0.71028 0.24826,2.76297 -0.004,3.13706 -0.33184,5.22711 -1.27838,8.15317 -0.8006,2.47489 -2.75054,5.78146 -3.84007,6.51193 -0.62443,0.41868 -1.20679,0.38888 -3.09111,-0.15871 -3.25617,-0.94627 -3.87138,-0.92834 -5.06884,0.14827 -1.38615,1.24628 -2.49591,3.18752 -3.12218,5.46095 -0.71383,2.59123 -1.429,6.14605 -1.429,7.10296 0,0.78936 0.20066,1.22835 1.33345,2.91673 0.52737,0.78605 0.98974,1.61989 1.0275,1.85294 0.0529,0.3266 -0.15084,0.9296 -0.88889,2.62932 -1.07028,2.46499 -2.72357,5.73925 -3.10441,6.14803 -0.474,0.50877 -0.84633,0.35183 -2.02055,-0.85129 -1.6942,-1.73586 -1.20571,-1.62113 -6.90612,-1.62113 h -4.87853 l -0.60147,0.3553 c -0.33081,0.19552 -1.03308,0.81202 -1.56057,1.36999 -1.05241,1.11323 -1.41758,1.24933 -1.91795,0.71398 -0.58329,-0.62407 -4.00635,-7.92123 -4.00635,-8.54058 0,-0.35355 0.29629,-0.90379 1.2225,-2.26932 1.39056,-2.05015 1.41016,-2.20756 0.70301,-5.69824 -0.62648,-3.0924 -1.03947,-4.66009 -1.55065,-5.88803 -0.84904,-2.03946 -2.58341,-4.11223 -3.72782,-4.4551 -0.65662,-0.19674 -1.64132,-0.0373 -3.87844,0.62757 -2.49483,0.7415 -2.9405,0.6278 -4.23426,-1.07997 -0.8355,-1.10286 -2.28392,-3.96905 -2.76741,-5.47608 -1.09391,-3.40962 -1.61607,-9.43142 -0.93326,-10.76447 0.2147,-0.41917 0.41804,-0.52356 2.32205,-1.19432 0.83826,-0.29532 1.77922,-0.68657 2.09102,-0.8693 1.05644,-0.61911 1.6532,-1.58375 1.9284,-3.11722 0.19072,-1.0628 -0.0552,-2.90256 -0.7983,-5.97469 -1.1699,-4.83664 -1.85215,-6.44558 -3.16839,-7.47104 -0.88188,-0.68708 -1.69101,-0.89964 -3.71528,-0.97608 -2.14995,-0.0812 -3.47315,0.11832 -6.9278,1.04525 -1.67419,0.4492 -2.6365,0.64596 -2.87367,0.58763 -2.02182,-0.4973 -4.04165,-3.9731 -4.97511,-8.56172 -0.39514,-1.94234 -0.48954,-5.50729 -0.2031,-7.67335 0.88179,-6.66808 3.58657,-12.59108 6.37227,-13.95401 1.41497,-0.69228 3.69567,-0.95364 4.97173,-0.5696 0.33945,0.10216 1.14612,0.57247 1.7924,1.04524 2.01416,1.47348 3.22821,2.24788 4.36007,2.78099 1.04448,0.49195 1.18502,0.52147 3.23052,0.67586 3.10458,0.23433 8.52194,0.23887 9.31694,0.008 0.97269,-0.28268 1.5574,-0.88442 2.43744,-2.50897 3.39817,-6.27295 3.78309,-6.87221 4.78324,-7.44416 1.16426,-0.66577 3.02337,-0.89976 7.11836,-0.89592 z m 0.18666,0.20101 c -2.07067,0.002 -4.17392,0.0634 -4.95659,0.18457 -1.49813,0.23181 -2.58927,0.74415 -3.21198,1.50809 -0.4926,0.60431 -1.42483,2.22154 -3.25271,5.64342 -1.29253,2.4197 -1.6612,2.87027 -2.74782,3.35791 l -0.83564,0.37513 -3.95128,-0.0778 c -4.52962,-0.089 -6.85987,-0.27292 -7.74384,-0.61139 -0.7681,-0.29409 -2.55461,-1.39853 -4.53525,-2.80395 -1.85001,-1.31271 -2.50468,-1.55674 -3.86749,-1.44154 -1.2822,0.10839 -2.498,0.42335 -3.19422,0.82755 -2.12684,1.23477 -4.38268,5.48651 -5.45676,10.28465 -0.67628,3.021 -0.79564,4.02427 -0.78682,6.6161 0.01,2.87184 0.27665,4.66359 1.05831,7.10766 1.04477,3.26675 2.9069,5.72356 4.33842,5.72356 0.24606,0 1.59434,-0.29547 2.99583,-0.65655 2.37003,-0.61062 3.39531,-0.81536 5.08764,-1.01576 0.99767,-0.11813 3.39244,0.14988 4.26872,0.47773 0.93979,0.35162 2.02903,1.39207 2.53064,2.41734 0.71284,1.45704 2.0452,6.52101 2.44552,9.29501 0.19989,1.38516 0.21057,1.772 0.0721,2.57972 -0.38787,2.26187 -1.35732,3.16496 -4.50523,4.19692 -1.44709,0.4744 -1.62343,0.57979 -1.88271,1.12618 -0.19511,0.41116 -0.21439,0.82537 -0.1501,3.2219 0.0831,3.09776 0.37906,4.87358 1.24234,7.45381 0.79003,2.36133 2.40661,5.24343 3.4592,6.16761 0.73567,0.64594 1.11915,0.65087 3.24199,0.0418 2.02558,-0.58117 3.22431,-0.77201 3.97061,-0.63201 0.31676,0.0594 0.74563,0.34019 1.29063,0.84477 2.14755,1.98825 3.19836,4.61424 4.33424,10.83208 0.33022,1.80758 0.33774,1.94614 0.14385,2.60634 -0.11262,0.38349 -0.65158,1.37497 -1.1977,2.20328 -0.54613,0.82832 -1.02774,1.59685 -1.07032,1.7078 -0.10633,0.27709 0.2033,1.14679 1.16402,3.26863 1.65994,3.66609 2.81715,5.74732 3.19529,5.74732 0.0652,0 0.70113,-0.55762 1.41333,-1.23896 0.92623,-0.88608 1.45161,-1.28566 1.84512,-1.40342 0.75244,-0.22516 9.29281,-0.23088 10.18362,-0.007 0.51066,0.12844 0.84338,0.3689 1.79004,1.29404 1.43071,1.39814 1.53203,1.46035 1.85346,1.13609 0.60572,-0.61099 3.49885,-6.56588 4.00924,-8.2521 0.1362,-0.44995 0.12726,-0.46886 -1.05491,-2.27898 -1.12513,-1.72281 -1.40566,-2.45067 -1.28882,-3.34278 0.14963,-1.14238 0.85198,-4.45662 1.34729,-6.35661 0.6048,-2.31997 1.46037,-4.00322 2.74078,-5.39281 1.59969,-1.73607 1.97833,-1.77764 6.05197,-0.66229 1.52225,0.41679 1.78318,0.45415 2.23512,0.31875 1.33043,-0.3986 3.66415,-4.4256 4.5979,-7.93388 0.60455,-2.27133 0.75735,-3.41127 0.82964,-6.19059 0.0954,-3.66861 0.13952,-3.58664 -2.36879,-4.39454 -2.30309,-0.74181 -3.33927,-1.54035 -3.88237,-2.99192 -0.59721,-1.59621 -0.44764,-3.51659 0.59624,-7.65691 0.87224,-3.45946 1.45867,-5.16012 2.07198,-6.00654 1.00857,-1.39199 1.92962,-1.87099 4.10269,-2.13436 2.0169,-0.24444 4.01213,0.0292 7.93232,1.08806 1.06393,0.28739 2.15,0.52263 2.41342,0.52263 1.39683,0 3.19619,-2.34411 4.26037,-5.5497 1.18469,-3.56862 1.48486,-6.96166 0.94526,-10.68981 -0.83936,-5.79921 -2.76062,-10.52932 -5.20563,-12.81634 -0.37356,-0.34942 -0.93285,-0.74694 -1.24286,-0.88339 -0.92344,-0.40645 -2.71423,-0.71234 -3.65551,-0.62444 -1.00988,0.0943 -1.67024,0.42535 -3.39055,1.69971 -1.54439,1.14405 -3.54419,2.35089 -4.31179,2.60216 -0.92372,0.30237 -3.2629,0.4799 -7.3849,0.56074 -5.79513,0.11365 -5.71425,0.15623 -8.07328,-4.24705 -3.16351,-5.90491 -3.30273,-6.05503 -6.09295,-6.56884 -0.65154,-0.11999 -2.6896,-0.17862 -4.76028,-0.177 z m -0.11434,1.00714 c 0.12691,0 1.2511,1.78995 2.12365,3.3814 0.31441,0.57345 0.61161,1.02454 0.66046,1.00245 0.0488,-0.0221 0.42194,-0.20675 0.82911,-0.41039 1.67247,-0.83643 3.1718,-0.70703 4.62714,0.39916 0.51509,0.39152 1.17087,1.22638 1.05464,1.34259 -0.0462,0.0462 -0.49802,0.12813 -1.00426,0.18221 -1.70127,0.18179 -3.2034,1.18063 -3.92752,2.61156 -0.42442,0.83868 -0.65324,1.67404 -0.50044,1.82684 0.0654,0.0654 0.77103,0.23521 1.56787,0.37748 0.79688,0.14227 2.17061,0.51141 3.05275,0.82023 1.50846,0.52808 1.69138,0.56159 3.07415,0.56205 0.80862,2.6e-4 2.00212,-0.0772 2.65227,-0.17204 0.91712,-0.13376 1.4864,-0.13904 2.53952,-0.0238 2.06583,0.22617 1.94572,0.0986 2.38784,2.53507 0.53102,2.92634 1.01955,6.38564 1.12305,7.95267 0.0486,0.73513 0.14807,1.45293 0.22137,1.59504 0.21401,0.41488 -0.30877,0.74399 -1.18178,0.74399 -1.06471,0 -2.08304,0.43277 -2.71912,1.15542 -0.77166,0.87665 -0.86456,1.27627 -0.76984,3.31483 0.15695,3.37747 0.9422,5.74522 2.23121,6.72809 0.35838,0.27327 0.8504,0.61837 1.09328,0.7667 0.62671,0.38274 0.75954,0.90859 0.76828,3.04256 0.008,1.87096 -0.35035,4.83719 -0.93117,7.71644 -0.4419,2.19052 -0.46712,2.23464 -1.7903,3.12584 -0.70066,0.47189 -1.44254,1.11484 -1.84694,1.60076 -0.78,0.93727 -1.73296,2.80432 -1.67725,3.28586 0.0435,0.37614 0.36338,0.49506 2.49513,0.92752 1.97722,0.4011 2.64906,0.44107 3.84999,0.22998 1.45092,-0.25503 2.50647,-0.8288 3.52264,-1.91507 0.43974,-0.47009 0.85071,-0.82332 0.91315,-0.78473 0.22425,0.1386 0.48083,1.36375 0.46728,2.23148 -0.0171,1.09447 -0.36553,2.23655 -0.945,3.09764 -0.24277,0.36074 -0.44117,0.73706 -0.44117,0.83641 0,0.0994 0.28568,0.37634 0.63487,0.6153 1.34221,0.91849 2.77664,2.51873 2.48965,2.77758 -0.22852,0.20611 -1.39929,0.41268 -2.8204,0.49757 -0.79214,0.0473 -1.47893,0.14525 -1.52612,0.21746 -0.0472,0.0722 -0.0321,0.31832 0.0334,0.5469 0.0656,0.22858 0.1193,0.75006 0.1193,1.15881 0,0.88391 -0.47065,1.94207 -1.09876,2.47059 -0.55154,0.46408 -1.54332,0.9551 -2.16438,1.07162 l -0.50827,0.0953 0.0984,-0.449 c 0.16021,-0.72947 0.102,-1.80932 -0.13654,-2.52751 -0.31148,-0.93773 -1.31653,-2.00223 -2.31188,-2.44893 -0.79626,-0.35733 -3.21176,-0.84672 -3.54612,-0.7184 -0.13534,0.0519 -0.20277,0.52797 -0.26184,1.85294 -0.10107,2.26688 -0.30688,2.95536 -1.18178,3.95232 -1.20675,1.37511 -1.37056,1.91974 -1.84564,6.13733 -0.52132,4.62816 -0.82273,8.72688 -0.68029,9.24906 0.0733,0.26863 0.52257,1.11133 0.99853,1.8728 1.13938,1.82283 1.36816,2.41752 1.14104,2.9658 -0.32705,0.7896 -2.2023,2.07714 -4.28099,2.93919 -0.95394,0.3956 -3.06337,0.95458 -4.21415,1.11677 -0.89222,0.12576 -0.9548,0.0104 -1.26219,-2.32492 -0.14997,-1.13945 -0.308,-2.19201 -0.35111,-2.33904 -0.28778,-0.9814 -1.40428,-0.97467 -1.70337,0.0102 -0.0463,0.15258 -0.20335,1.20514 -0.34902,2.33903 -0.26271,2.04497 -0.40575,2.44013 -0.86017,2.37584 -0.0778,-0.011 -0.32192,-0.0432 -0.54246,-0.0715 -2.48289,-0.31861 -5.2417,-1.41399 -7.19354,-2.85616 -1.51512,-1.1195 -1.56158,-1.61311 -0.33964,-3.61479 1.45903,-2.39004 1.38761,-2.208 1.35773,-3.46181 -0.0368,-1.54581 -0.65573,-8.05844 -0.98442,-10.35853 -0.30762,-2.15267 -0.58102,-2.83813 -1.59189,-3.99332 -0.85172,-0.97331 -1.07313,-1.72143 -1.18596,-4.00662 l -0.0867,-1.75714 -0.68084,0.0272 c -1.00336,0.0402 -2.52348,0.38669 -3.21798,0.73355 -0.83652,0.41778 -1.8395,1.54806 -2.11818,2.38706 -0.25023,0.75337 -0.30831,1.672 -0.15402,2.43248 0.0914,0.45035 0.0736,0.50122 -0.17464,0.50122 -0.3958,0 -1.86622,-0.69475 -2.36539,-1.11756 -0.91815,-0.77773 -1.31348,-2.20267 -0.9933,-3.58033 0.0623,-0.2682 0.076,-0.54494 0.0302,-0.61477 -0.0458,-0.0698 -0.74462,-0.16545 -1.55326,-0.2125 -1.74154,-0.10133 -2.78704,-0.33441 -2.84443,-0.63435 -0.0561,-0.2931 1.55395,-1.99906 2.4445,-2.59016 0.40362,-0.26791 0.73408,-0.56804 0.73408,-0.66699 0,-0.099 -0.19867,-0.47515 -0.44145,-0.83588 -0.87933,-1.30668 -1.19141,-3.16817 -0.77454,-4.62063 0.21578,-0.75181 0.38723,-0.90039 0.63593,-0.55159 1.3768,1.93082 4.06328,3.01049 6.47304,2.60111 1.87073,-0.31781 3.8896,-0.85473 3.96642,-1.0549 0.10502,-0.27367 -0.28641,-1.33579 -0.84163,-2.28316 -0.66077,-1.12743 -1.44614,-1.93303 -2.72513,-2.79483 -1.30222,-0.87746 -1.32438,-0.91891 -1.81117,-3.43126 -0.62117,-3.20593 -0.90663,-5.81754 -0.85233,-7.79448 0.0594,-2.16313 0.11699,-2.29866 1.27054,-2.98305 0.99443,-0.58998 1.67036,-1.48525 2.09677,-2.77733 0.63634,-1.92825 0.95473,-5.37074 0.61111,-6.60826 -0.33862,-1.21953 -1.86936,-2.22468 -3.38767,-2.22468 -0.91068,0 -1.44347,-0.35772 -1.17916,-0.79151 0.0919,-0.15081 0.16707,-0.57352 0.16707,-0.93927 0,-1.23881 1.17927,-9.29012 1.55091,-10.58825 0.14083,-0.49194 3.4494,-0.7262 5.51106,-0.39028 1.68568,0.27466 2.99692,0.13773 4.81354,-0.50278 0.83446,-0.29422 2.09751,-0.63358 2.80683,-0.75418 1.75587,-0.29856 1.9181,-0.37338 1.81378,-0.83511 -0.1834,-0.81172 -0.8701,-2.05866 -1.45641,-2.64497 -0.77349,-0.7735 -1.82894,-1.24823 -3.04857,-1.37131 -0.51853,-0.0523 -0.96423,-0.16037 -0.99068,-0.24017 -0.0703,-0.2122 1.23018,-1.4868 1.82866,-1.79212 1.24462,-0.63495 2.46385,-0.60296 3.87636,0.10129 0.40341,0.20113 0.77267,0.38339 0.8205,0.40515 0.0478,0.0218 0.3119,-0.36918 0.58684,-0.86877 0.84685,-1.53887 2.08768,-3.51455 2.2072,-3.51455 z m -34.93995,7.38619 c 1.37977,-0.0343 3.07964,0.70356 4.52872,1.98035 1.12708,0.99308 2.67417,1.76758 4.10425,2.05474 1.37586,0.27626 3.99701,0.26798 4.71722,-0.015 1.04614,-0.41088 1.45904,-0.38841 1.99626,0.1086 l 0.48347,0.44745 -0.26289,1.20292 c -0.46298,2.11891 -1.0712,6.07687 -1.31465,8.55414 l -0.23653,2.40587 -0.76644,0.0399 c -0.97103,0.0507 -1.30215,-0.10688 -2.90654,-1.38436 -0.79693,-0.63455 -1.81726,-1.28143 -2.74,-1.73678 -1.66635,-0.8223 -4.04556,-1.66368 -4.7039,-1.66368 -0.56588,0 -1.40537,0.73542 -1.85738,1.62739 -0.37449,0.73902 -0.75646,2.25556 -0.69701,2.76794 l 0.0407,0.34955 1.73756,0.0105 c 2.2096,0.0134 3.17642,0.20251 4.69423,0.91838 2.5386,1.19733 4.41134,2.824 5.18944,4.5081 0.72036,1.55909 1.36664,4.48917 1.19744,5.42857 -0.19233,1.06799 -0.48398,1.07459 -1.388,0.031 -1.76993,-2.04304 -4.29869,-2.94388 -8.26334,-2.94388 -1.48695,0 -2.23883,0.22381 -3.36965,1.00349 -0.70656,0.48716 -1.04287,0.63052 -1.61486,0.68864 -1.46653,0.14904 -3.07356,-0.54353 -4.02073,-1.73286 -1.54737,-1.94295 -2.4487,-5.40029 -2.42883,-9.31536 0.023,-4.52644 1.3081,-9.10289 3.49236,-12.43521 1.17014,-1.78517 2.49906,-2.71553 4.11756,-2.88331 0.089,-0.009 0.17951,-0.015 0.27151,-0.0173 z m 69.66244,0.006 c 0.73776,-0.006 1.5434,0.17743 2.2085,0.51688 3.42052,1.74502 6.47214,10.43863 5.84887,16.66242 -0.31835,3.17889 -1.0965,5.70082 -2.23669,7.24967 -0.70078,0.95194 -1.48307,1.48174 -2.65673,1.79943 -1.28522,0.3479 -2.04675,0.2158 -3.16681,-0.54951 -0.49612,-0.33898 -1.18356,-0.701 -1.52768,-0.80457 -1.2909,-0.3885 -5.19244,-0.10769 -6.79831,0.48921 -1.16665,0.43365 -2.15425,1.1073 -3.14829,2.14794 -0.48177,0.50434 -0.94045,0.91708 -1.0194,0.91708 -0.079,0 -0.2256,-0.0988 -0.3258,-0.21955 -0.49354,-0.59468 0.17102,-4.38513 1.08676,-6.1992 0.77191,-1.52914 2.55821,-3.07536 4.92971,-4.26715 1.48645,-0.74703 2.60633,-0.97814 4.8258,-0.99539 1.80369,-0.014 1.8043,-0.014 1.85007,-0.33807 0.10374,-0.73452 -0.62932,-2.92503 -1.21206,-3.62183 -0.38853,-0.46459 -0.96525,-0.79881 -1.37836,-0.79881 -0.63035,0 -2.96693,0.83455 -4.67282,1.66916 -0.91404,0.4472 -1.9234,1.08095 -2.66795,1.67517 -1.6081,1.28339 -2.03639,1.48997 -2.98643,1.44022 l -0.76123,-0.0396 -0.16212,-1.80151 c -0.2051,-2.28088 -0.74403,-5.92105 -1.24703,-8.42336 l -0.38949,-1.93805 0.46284,-0.43439 c 0.54559,-0.51192 0.91295,-0.5442 1.90515,-0.16708 0.55549,0.21112 1.02692,0.26732 2.24452,0.26732 2.85431,0 4.8928,-0.69066 6.67588,-2.26175 1.05688,-0.93122 2.46768,-1.67568 3.61165,-1.90542 0.22317,-0.0448 0.46154,-0.0674 0.70745,-0.0692 z m -35.04488,3.04439 c -0.13072,8e-4 -0.0798,0.27167 0.25086,1.7266 0.27787,1.22261 0.20572,2.7432 -0.21249,4.48696 -0.24676,1.02884 -0.27665,1.45603 -0.21747,3.09816 0.0378,1.04754 0.0399,1.90463 0.005,1.90463 -0.0353,0 -1.07431,-0.75183 -2.30874,-1.67073 -2.04951,-1.52566 -2.67839,-1.88898 -2.67839,-1.54726 0,0.0679 0.45163,1.43628 1.00349,3.04073 0.55185,1.60446 0.97788,2.98385 0.94683,3.06554 -0.031,0.0817 -1.20443,0.95001 -2.60738,1.92943 -1.40296,0.97942 -2.55074,1.85986 -2.55074,1.95658 0,0.21532 -0.18561,0.20355 3.5336,0.22504 l 3.0658,0.0178 0.92777,3.03367 c 0.80631,2.63651 0.96489,3.03899 1.21127,3.07414 0.27924,0.0398 0.28342,0.0836 0.27254,2.91412 -0.0114,2.94894 -0.23321,4.72089 -0.62182,4.96756 -0.0931,0.059 -0.39192,0.10826 -0.66412,0.10938 -0.62784,0.002 -1.10595,0.21904 -1.29143,0.58477 -0.0798,0.15728 -0.32928,0.87079 -0.55447,1.58561 -0.75128,2.38472 -2.28831,4.16952 -4.07633,4.73314 -0.61398,0.19354 -0.86876,0.20474 -1.76156,0.0775 -2.30753,-0.32877 -2.40274,-0.36847 -3.57747,-1.49348 -0.59138,-0.56636 -1.21782,-1.10622 -1.39218,-1.19954 -0.30023,-0.16067 -0.31381,-0.224 -0.25766,-1.19431 0.0467,-0.80731 0.13715,-1.15771 0.42709,-1.65245 0.50257,-0.85756 0.42973,-1.13414 -0.45371,-1.72164 -0.40432,-0.26888 -0.86624,-0.63124 -1.02646,-0.80508 -0.49677,-0.539 -1.22186,-1.84663 -1.51906,-2.73974 -0.2945,-0.88498 -0.57967,-1.16767 -1.10269,-1.09303 -0.35208,0.0502 -0.45674,0.44116 -0.47929,1.78952 -0.0362,2.16554 0.73005,7.50687 1.1442,7.97539 0.34394,0.38909 3.1793,1.73315 3.54586,1.68091 0.41444,-0.059 0.45012,-0.41738 0.0903,-0.90402 -0.56953,-0.77035 -0.11461,-0.58419 0.85103,0.34824 0.86705,0.83724 1.06006,0.95788 1.83755,1.1481 0.47783,0.11691 1.21772,0.25454 1.64411,0.30596 0.42637,0.0514 0.85091,0.16905 0.94343,0.26157 0.0949,0.0949 0.30018,1.20919 0.4712,2.55674 0.33422,2.63356 0.49636,3.22232 1.14863,4.17056 0.69832,1.01518 1.14043,1.97984 1.41125,3.07963 0.26299,1.068 0.72482,5.27895 0.86669,7.90282 l 0.083,1.53708 -0.66438,1.06927 c -0.36544,0.58809 -1.03865,1.47724 -1.49583,1.9759 l -0.83118,0.90663 0.15612,2.368 c 0.18593,2.81925 0.36193,4.17858 0.63488,4.90543 0.56269,1.49852 0.69857,2.00401 0.83221,3.09372 0.08,0.652 0.14573,1.64876 0.14594,2.21503 0,1.13658 0.15282,1.61284 0.58344,1.82134 0.37802,0.18304 0.41532,0.18273 0.82519,-0.004 v 0 c 0.40448,-0.18428 0.77357,-0.86066 1.62087,-2.96893 0.90144,-2.243 1.21451,-2.61808 2.18344,-2.61808 0.96894,0 1.28173,0.37508 2.18319,2.61808 1.14046,2.83777 1.5353,3.33741 2.36564,2.99347 0.50519,-0.20925 0.66386,-0.64996 0.66386,-1.84563 0,-2.00932 0.24775,-3.43052 0.88209,-5.05944 0.34663,-0.89015 0.63823,-3.0521 0.79464,-5.89037 l 0.0903,-1.63706 -0.77429,-0.83562 c -0.84472,-0.91198 -2.02067,-2.62901 -2.14793,-3.13602 -0.18962,-0.75552 0.57115,-8.47517 0.96536,-9.7957 0.25353,-0.84923 0.75624,-1.89571 1.18779,-2.47269 0.72436,-0.96844 0.89596,-1.5317 1.21912,-4.00036 0.39208,-2.99522 0.39297,-2.99914 0.7586,-3.07284 0.1643,-0.0331 0.87031,-0.1629 1.56868,-0.2882 0.69836,-0.12529 1.39004,-0.28613 1.53707,-0.35764 0.14702,-0.0715 0.67147,-0.5261 1.16559,-1.01001 0.94118,-0.92173 1.26615,-1.02521 0.78759,-0.25087 -0.69719,1.12807 -0.11233,1.17484 1.9579,0.15638 0.89823,-0.44192 1.58602,-0.87078 1.71693,-1.07058 0.49783,-0.75978 1.27256,-7.15607 1.06508,-8.79301 -0.10775,-0.85014 -0.28132,-1.01486 -0.85703,-0.81239 -0.27458,0.0966 -0.42433,0.32972 -0.71187,1.10868 -0.45719,1.23858 -0.59956,1.39071 -0.89333,0.9531 -0.48097,-0.71648 -1.39362,-1.88749 -1.97537,-2.53455 -0.95328,-1.06026 -2.41858,-1.66596 -5.19233,-2.14585 -0.68027,-0.11769 -0.88987,-0.22818 -1.41621,-0.74661 -0.33974,-0.33462 -0.90776,-1.09581 -1.26218,-1.69161 -0.85623,-1.43939 -1.98072,-3.9342 -1.86077,-4.12827 0.0689,-0.11152 0.71692,-0.13697 2.31553,-0.0914 2.33732,0.0666 2.55412,0.0487 2.55412,-0.21171 0,-0.0891 -1.145,-0.96519 -2.5442,-1.94692 -1.39922,-0.98176 -2.57561,-1.83659 -2.61444,-1.89942 -0.0389,-0.0629 0.38415,-1.44174 0.94005,-3.06422 0.5559,-1.62248 1.01079,-3.00541 1.01079,-3.07337 0,-0.3506 -0.68084,0.0442 -2.79665,1.62217 -1.28078,0.9552 -2.37951,1.68558 -2.44188,1.62323 -0.0623,-0.0624 -0.18275,-0.63043 -0.26731,-1.26245 -0.16243,-1.21394 -0.0529,-2.54814 0.3592,-4.37862 0.30649,-1.3614 0.25614,-3.62248 -0.10416,-4.66996 -0.1628,-0.4733 -0.37925,-0.88688 -0.48085,-0.91916 -0.0258,-0.008 -0.0482,-0.0138 -0.0668,-0.0136 z m 2.40271,18.23342 h 0.51401 0.51401 l 0.77507,1.70598 c 1.02796,2.26273 1.95795,3.77572 2.82562,4.59633 0.68198,0.64499 0.75803,0.67959 1.84433,0.84451 1.4856,0.22554 2.9871,0.70096 3.75706,1.18935 0.67993,0.43129 1.69235,1.58209 2.62408,2.9833 l 0.60172,0.90481 -0.36597,0.47981 c -0.38647,0.50669 -1.26258,1.19922 -1.68797,1.33423 -0.44731,0.14198 -0.46286,0.69368 -0.0426,1.51723 0.28746,0.56326 0.39583,0.98804 0.4336,1.7005 l 0.0504,0.94944 -0.44798,0.27933 c -0.2464,0.1536 -0.83682,0.67325 -1.31204,1.15463 -0.94744,0.95978 -1.1227,1.04177 -2.86243,1.34103 -1.49945,0.25791 -1.87117,0.25025 -2.6515,-0.0548 -1.86743,-0.73005 -3.35243,-2.65013 -4.03795,-5.22104 -0.33761,-1.26615 -0.67362,-1.60364 -1.59658,-1.60364 -0.25779,0 -0.50352,-0.0563 -0.54586,-0.12478 -0.0423,-0.0685 0.0179,-0.65494 0.13365,-1.30317 0.28646,-1.60386 0.39267,-4.87818 0.21459,-6.61349 l -0.14644,-1.42534 0.70456,-2.31709 z m -2.06753,14.56879 c 1.71923,0 1.82364,0.0666 2.18579,1.4021 0.71052,2.62003 2.37276,4.7113 4.31256,5.42518 0.34956,0.12864 0.68085,0.27214 0.73618,0.319 0.12274,0.10396 -0.3941,4.21399 -0.64976,5.167 -0.1011,0.37683 -0.40249,1.00324 -0.66986,1.39193 -0.62643,0.91066 -1.18979,2.1267 -1.44701,3.12323 -0.25256,0.97844 -0.69671,5.02692 -0.87374,7.9652 -0.17877,2.96707 -0.44555,4.23777 -1.52924,7.2844 -0.26149,0.73512 -0.47602,1.52796 -0.47668,1.7621 -0.002,0.68435 -0.21294,1.06602 -0.67979,1.22877 -0.57283,0.19969 -1.4303,0.1816 -1.9417,-0.041 -0.42771,-0.18619 -0.5815,-0.50388 -0.58684,-1.21233 -0.002,-0.22054 -0.21701,-1.00244 -0.4785,-1.73756 -0.2615,-0.73512 -0.55628,-1.58445 -0.65524,-1.88714 -0.4039,-1.23526 -0.75379,-3.40538 -0.8774,-5.44293 -0.20499,-3.37902 -0.64118,-7.14911 -0.94553,-8.17119 -0.30566,-1.02644 -0.78781,-2.05846 -1.24992,-2.6763 -0.49429,-0.66087 -0.84273,-1.44044 -0.92751,-2.07484 -0.044,-0.32907 -0.20165,-1.49616 -0.35034,-2.59329 -0.14868,-1.09713 -0.22356,-2.03439 -0.16654,-2.08293 0.057,-0.0486 0.38949,-0.1935 0.73903,-0.32213 1.95309,-0.71877 3.52863,-2.70971 4.364,-5.51472 0.15523,-0.52119 0.38102,-1.02968 0.502,-1.1301 0.15606,-0.12952 0.64026,-0.18247 1.66604,-0.18247 z m -24.27285,11.16884 c -0.2804,-0.0168 -0.44116,0.53346 -0.45736,1.61695 -0.0173,1.15185 0.33836,2.28429 1.04001,3.31222 0.30283,0.44361 0.55057,0.83554 0.55057,0.87087 0,0.0353 -0.34421,0.28432 -0.76488,0.55343 -0.89898,0.57506 -2.44292,2.07647 -2.44292,2.37557 0,0.11448 0.1191,0.27188 0.2647,0.3498 0.32711,0.17507 2.18775,0.36638 3.31067,0.34042 0.50926,-0.0118 0.83467,0.0358 0.83378,0.12166 -0.002,0.0774 -0.091,0.43612 -0.20049,0.79699 -0.25253,0.83249 -0.2512,1.34829 0.006,2.10094 0.29586,0.86824 0.88821,1.51064 1.82398,1.97825 0.898,0.44873 0.99183,0.47269 1.10973,0.28193 0.0438,-0.0707 0.10039,-0.60252 0.12582,-1.18151 0.0558,-1.27069 0.36079,-2.03181 1.16351,-2.90264 0.81288,-0.88189 1.80802,-1.341 3.60878,-1.66525 0.82977,-0.14941 1.56489,-0.32803 1.63366,-0.3968 0.29208,-0.29207 -0.50173,-6.40072 -0.88104,-6.78004 -0.16282,-0.16282 -0.32606,-0.15229 -1.18075,0.077 -2.7326,0.73314 -4.60653,0.83412 -6.27123,0.33806 -0.87872,-0.26183 -2.42004,-1.25215 -2.81754,-1.8104 -0.17454,-0.24513 -0.32678,-0.36986 -0.45422,-0.37747 z m 48.61437,0.0318 c -0.12632,0.004 -0.51399,0.28786 -0.89776,0.66255 -1.33146,1.29995 -3.11478,1.92131 -5.14925,1.79394 -0.62485,-0.0391 -1.93886,-0.26225 -2.91986,-0.496 -1.03386,-0.24632 -1.83324,-0.37525 -1.90177,-0.30673 -0.33648,0.33648 -1.09605,6.60968 -0.83223,6.8735 0.0787,0.0787 0.81391,0.25745 1.63365,0.39732 1.81758,0.3101 2.71911,0.71719 3.54535,1.6005 0.81974,0.87636 1.12676,1.60234 1.22173,2.88802 0.0426,0.57671 0.10214,1.1279 0.13235,1.22486 0.0735,0.23604 0.47765,0.10927 1.39297,-0.43727 1.42964,-0.85363 1.95906,-2.13837 1.55535,-3.77428 -0.11861,-0.48063 -0.18157,-0.92905 -0.13992,-0.99644 0.0417,-0.0674 0.27679,-0.0848 0.52262,-0.0386 0.52935,0.0993 3.21654,-0.16881 3.56597,-0.35581 0.13372,-0.0716 0.2433,-0.21172 0.2433,-0.31144 0,-0.30494 -1.18791,-1.52314 -2.12287,-2.17717 -0.48652,-0.34035 -0.93773,-0.66459 -1.0027,-0.72051 -0.065,-0.0559 0.10693,-0.40828 0.38191,-0.78289 0.66764,-0.90951 1.13332,-2.25944 1.13688,-3.29604 0.004,-1.03429 -0.11953,-1.65819 -0.34406,-1.74435 -0.006,-0.002 -0.0132,-0.004 -0.0217,-0.003 z"
         style="fill:#ffcc66;fill-opacity:1;stroke-width:0.13365851" />
    </g>
  </g>
</svg>
